<svg xmlns="http://www.w3.org/2000/svg" xmlns:xlink="http://www.w3.org/1999/xlink" width="500" zoomAndPan="magnify" viewBox="0 0 375 374.999991" height="500" preserveAspectRatio="xMidYMid meet" version="1.0"><defs><g/></defs><g fill="#f8f8f8" fill-opacity="1"><g transform="translate(57.412621, 255.333673)"><g><path d="M 3.015625 0 L 77.0625 -178.203125 L 93.875 -178.203125 L 164.90625 0 L 145.328125 0 L 126.75 -47.6875 L 42.171875 -47.6875 L 22.84375 0 Z M 48.6875 -64 L 120.484375 -64 L 85.34375 -154.359375 Z M 48.6875 -64 "/></g></g></g><g fill="#0cc0df" fill-opacity="1"><g transform="translate(114.748291, 287.79886)"><g><path d="M 104.921875 -86.34375 L 166.921875 -86.34375 L 166.921875 0 L 152.109375 0 L 149.59375 -23.84375 C 138.050781 -6.601562 119.476562 2.015625 93.875 2.015625 C 77.8125 2.015625 63.835938 -1.5 51.953125 -8.53125 C 40.078125 -15.5625 30.875 -25.601562 24.34375 -38.65625 C 17.820312 -51.707031 14.5625 -67.4375 14.5625 -85.84375 C 14.5625 -104.582031 18.238281 -121.0625 25.59375 -135.28125 C 32.957031 -149.507812 43.207031 -160.640625 56.34375 -168.671875 C 69.476562 -176.703125 85 -180.71875 102.90625 -180.71875 C 131.6875 -180.71875 152.519531 -169.507812 165.40625 -147.09375 L 150.34375 -135.796875 C 140.476562 -153.691406 124.25 -162.640625 101.65625 -162.640625 C 88.269531 -162.640625 76.554688 -159.421875 66.515625 -152.984375 C 56.472656 -146.546875 48.648438 -137.550781 43.046875 -126 C 37.441406 -114.457031 34.640625 -101.070312 34.640625 -85.84375 C 34.640625 -63.414062 39.992188 -46.132812 50.703125 -34 C 61.410156 -21.875 76.300781 -15.8125 95.375 -15.8125 C 111.613281 -15.8125 124.539062 -19.953125 134.15625 -28.234375 C 143.78125 -36.515625 148.59375 -47.769531 148.59375 -62 L 148.59375 -70.53125 L 104.921875 -70.53125 Z M 104.921875 -86.34375 "/></g></g></g></svg>